<?xml version="1.0" encoding="UTF-8"?>
<!-- Logo Papelería v2 (dos líneas, sin aro, Pape / lería). Fredoka SemiBold, como el título. Fondo transparente; cada letra es un path independiente. Ver los colores en el bloque style. -->
<svg xmlns="http://www.w3.org/2000/svg" viewBox="0 0 337.33 240.34" role="img" aria-labelledby="pap-title">
  <title id="pap-title">Papelería</title>
  <style>
    /* Pintar inline con CSS: --papeleria-teal, --papeleria-yellow, --papeleria-orange (por color)
       o --papeleria-1 a --papeleria-9 (una por letra). Como imagen (img) o en un editor (Inkscape, Illustrator,
       Figma) se usan los fill de cada path. */
    .pap-1{fill:var(--papeleria-1,var(--papeleria-teal,#7DC5C3))}
    .pap-2{fill:var(--papeleria-2,var(--papeleria-yellow,#EBB728))}
    .pap-3{fill:var(--papeleria-3,var(--papeleria-orange,#EC652A))}
    .pap-4{fill:var(--papeleria-4,var(--papeleria-teal,#7DC5C3))}
    .pap-5{fill:var(--papeleria-5,var(--papeleria-yellow,#EBB728))}
    .pap-6{fill:var(--papeleria-6,var(--papeleria-orange,#EC652A))}
    .pap-7{fill:var(--papeleria-7,var(--papeleria-teal,#7DC5C3))}
    .pap-8{fill:var(--papeleria-8,var(--papeleria-yellow,#EBB728))}
    .pap-9{fill:var(--papeleria-9,var(--papeleria-teal,#7DC5C3))}
  </style>
  <g id="letras">
    <path id="letra-1-P" class="pap-1" fill="#7DC5C3" d="M22.32 111.44Q17.02 111.44 14.81 109.87Q12.59 108.3 12.02 105.72Q11.44 103.15 11.44 100.43L11.44 22.32Q11.44 19.6 12.02 17.1Q12.59 14.59 14.88 13.02Q17.17 11.44 22.46 11.44L51.79 11.44Q57.8 11.44 63.88 13.59Q69.96 15.74 75.18 20.24Q80.4 24.75 83.62 31.33Q86.84 37.91 86.84 46.78Q86.84 55.51 83.62 62.09Q80.4 68.67 75.18 73.03Q69.96 77.4 63.81 79.61Q57.65 81.83 51.65 81.83L33.33 81.83L33.33 100.57Q33.33 103.29 32.76 105.79Q32.19 108.3 29.9 109.87Q27.61 111.44 22.32 111.44M33.33 33.19L33.33 60.09L51.79 60.09Q54.94 60.09 58.01 58.73Q61.09 57.37 63.16 54.36Q65.24 51.36 65.24 46.64Q65.24 42.63 63.52 39.63Q61.8 36.62 58.73 34.91Q55.65 33.19 51.65 33.19L33.33 33.19"/>
    <path id="letra-2-a" class="pap-2" fill="#EBB728" d="M150.64 111.3Q145.35 111.3 142.85 109.44Q140.34 107.58 140.34 104.86L141.77 102.43Q140.92 103.86 138.48 105.94Q136.05 108.01 132.19 109.66Q128.33 111.3 122.6 111.3Q116.02 111.3 110.09 108.44Q104.15 105.58 99.57 100.5Q94.99 95.42 92.35 88.98Q89.7 82.55 89.7 75.39Q89.7 68.38 92.35 62.02Q94.99 55.65 99.64 50.72Q104.29 45.78 110.16 42.92Q116.02 40.06 122.6 40.06Q127.9 40.06 131.62 41.56Q135.34 43.06 137.84 45.06Q140.34 47.07 141.63 48.93L140.49 46.92Q140.34 43.49 142.85 41.7Q145.35 39.91 150.79 39.91Q155.94 39.91 158.15 41.49Q160.37 43.06 160.87 45.64Q161.37 48.21 161.37 51.07L161.37 100.43Q161.37 103.15 160.87 105.72Q160.37 108.3 158.15 109.8Q155.94 111.3 150.64 111.3M125.75 89.99Q129.47 89.99 132.55 88.05Q135.62 86.12 137.41 82.83Q139.2 79.54 139.2 75.54Q139.2 71.39 137.34 68.17Q135.48 64.95 132.33 63.02Q129.18 61.09 125.46 61.09Q121.32 61.09 118.1 63.09Q114.88 65.09 112.95 68.38Q111.02 71.67 111.02 75.82Q111.02 79.69 112.95 82.9Q114.88 86.12 118.24 88.05Q121.6 89.99 125.75 89.99"/>
    <path id="letra-3-p" class="pap-3" fill="#EC652A" d="M214.73 110.16Q207.72 110.16 202.43 107.3Q199.85 106.15 197.85 104.43L197.85 130.47Q197.99 133.19 197.42 135.62Q196.85 138.05 194.63 139.56Q192.41 141.06 187.12 141.06Q181.97 141.06 179.75 139.56Q177.53 138.05 177.03 135.69Q176.53 133.33 176.53 130.62L176.53 50.64Q176.53 47.78 176.96 45.42Q177.39 43.06 179.61 41.49Q181.82 39.91 186.97 39.91Q191.41 39.91 194.06 41.2Q196.7 42.49 197.85 45.21L197.85 45.92Q199.99 44.06 202.57 42.63Q207.72 39.91 214.73 39.91Q221.02 39.91 226.96 42.78Q232.9 45.64 237.48 50.57Q242.05 55.51 244.7 61.95Q247.35 68.38 247.35 75.54Q247.35 82.69 244.7 89.06Q242.05 95.42 237.48 100.14Q232.9 104.86 227.03 107.51Q221.17 110.16 214.73 110.16M211.72 89.99Q215.73 89.99 218.88 88.05Q222.02 86.12 223.96 82.83Q225.89 79.54 225.89 75.54Q225.89 71.39 224.03 68.17Q222.17 64.95 219.02 63.09Q215.87 61.23 211.87 61.23Q208 61.23 204.79 63.16Q201.57 65.09 199.78 68.31Q197.99 71.53 197.99 75.54Q197.99 79.54 199.85 82.83Q201.71 86.12 204.86 88.05Q208 89.99 211.72 89.99"/>
    <path id="letra-4-e" class="pap-4" fill="#7DC5C3" d="M293.7 112.73Q283.68 112.73 276.46 109.44Q269.23 106.15 264.66 100.79Q260.08 95.42 257.86 88.84Q255.64 82.26 255.64 75.68Q255.64 64.95 260.51 56.65Q265.37 48.35 273.96 43.56Q282.54 38.77 293.7 38.77Q302 38.77 308.08 41.42Q314.16 44.06 318.09 48.28Q322.02 52.5 323.96 57.37Q325.89 62.23 325.89 66.67Q325.89 74.54 322.1 78.33Q318.3 82.12 312.44 82.12L278.39 82.12Q278.68 85.84 281.04 88.41Q283.4 90.99 286.97 92.42Q290.55 93.85 294.56 93.85Q297.99 93.85 300.57 93.49Q303.14 93.13 305 92.49Q306.86 91.85 308.43 91.2Q310.01 90.56 311.22 90.13Q312.44 89.7 313.58 89.56Q315.73 89.41 317.52 90.77Q319.31 92.13 320.74 94.85Q321.74 96.42 322.1 97.85Q322.45 99.28 322.45 100.72Q322.45 104.15 318.95 106.87Q315.44 109.59 309.08 111.16Q302.71 112.73 293.7 112.73M278.39 70.39L300.99 70.39Q303.28 70.39 304.36 69.6Q305.43 68.81 305.43 66.52Q305.43 63.95 303.86 62.02Q302.28 60.09 299.64 59.01Q296.99 57.94 293.56 57.94Q289.12 57.94 285.69 59.66Q282.25 61.37 280.32 64.23Q278.39 67.1 278.39 70.39"/>
    <path id="letra-5-l" class="pap-5" fill="#EBB728" d="M55.71 227.61Q49.84 227.61 45.33 226.97Q40.83 226.32 37.61 224.61Q34.39 222.89 32.39 219.89Q30.38 216.88 29.45 212.09Q28.52 207.3 28.52 200.29L28.52 134.19Q28.52 131.33 29.02 128.9Q29.52 126.47 31.81 124.89Q34.1 123.32 39.25 123.32Q44.4 123.32 46.62 124.89Q48.84 126.47 49.41 128.9Q49.98 131.33 49.98 134.19L49.98 199.28Q49.98 201.57 50.2 203.08Q50.41 204.58 51.06 205.44Q51.7 206.29 52.84 206.58Q53.99 206.87 55.85 206.87Q57.56 206.87 59.35 207.3Q61.14 207.73 62.43 209.87Q63.72 212.02 63.72 217.02Q63.72 222.17 62.43 224.46Q61.14 226.75 59.35 227.18Q57.56 227.61 55.71 227.61"/>
    <path id="letra-6-e" class="pap-6" fill="#EC652A" d="M104.92 228.9Q94.9 228.9 87.68 225.61Q80.45 222.32 75.88 216.95Q71.3 211.59 69.08 205.01Q66.86 198.43 66.86 191.85Q66.86 181.12 71.73 172.82Q76.59 164.52 85.18 159.73Q93.76 154.94 104.92 154.94Q113.22 154.94 119.3 157.58Q125.38 160.23 129.31 164.45Q133.24 168.67 135.18 173.53Q137.11 178.4 137.11 182.83Q137.11 190.7 133.32 194.49Q129.52 198.28 123.66 198.28L89.61 198.28Q89.9 202 92.26 204.58Q94.62 207.15 98.19 208.58Q101.77 210.01 105.78 210.01Q109.21 210.01 111.79 209.66Q114.36 209.3 116.22 208.66Q118.08 208.01 119.65 207.37Q121.23 206.72 122.44 206.29Q123.66 205.87 124.8 205.72Q126.95 205.58 128.74 206.94Q130.53 208.3 131.96 211.02Q132.96 212.59 133.32 214.02Q133.67 215.45 133.67 216.88Q133.67 220.31 130.17 223.03Q126.66 225.75 120.3 227.32Q113.93 228.9 104.92 228.9M89.61 186.55L112.21 186.55Q114.5 186.55 115.58 185.77Q116.65 184.98 116.65 182.69Q116.65 180.11 115.08 178.18Q113.5 176.25 110.86 175.18Q108.21 174.11 104.78 174.11Q100.34 174.11 96.91 175.82Q93.47 177.54 91.54 180.4Q89.61 183.26 89.61 186.55"/>
    <path id="letra-7-r" class="pap-7" fill="#7DC5C3" d="M156.77 227.61Q151.47 227.61 149.25 226.11Q147.04 224.61 146.54 222.03Q146.04 219.46 146.04 216.74L146.04 166.81Q146.04 163.95 146.61 161.52Q147.18 159.08 149.4 157.58Q151.62 156.08 156.91 156.08Q161.92 156.08 164.13 157.44Q166.35 158.8 166.92 160.52Q167.21 161.52 167.35 162.37Q168.64 160.94 170.64 159.23Q172.79 157.65 175.86 156.51Q178.94 155.36 182.95 155.36Q184.52 155.36 186.45 155.58Q188.38 155.79 190.46 156.44Q192.53 157.08 194.25 158.15Q195.96 159.23 197.04 160.8Q198.11 162.37 198.11 164.66Q198.11 170.53 195.39 174.61Q192.67 178.68 188.53 178.68Q186.09 178.68 185.09 178.25Q184.09 177.83 183.45 177.4Q182.8 176.97 181.94 176.61Q181.09 176.25 178.8 176.25Q176.65 176.25 174.72 176.82Q172.79 177.4 171.14 178.61Q169.5 179.83 168.57 181.62Q167.64 183.4 167.64 185.55L167.64 217.02Q167.64 219.74 167.14 222.25Q166.64 224.75 164.35 226.18Q162.06 227.61 156.77 227.61"/>
    <path id="letra-8-i" class="pap-8" fill="#EBB728" d="M217.42 227.61Q212.27 227.61 209.98 226.11Q207.7 224.61 207.19 222.1Q206.69 219.6 206.69 216.88L206.69 166.95Q206.69 164.09 207.27 161.66Q207.84 159.23 210.06 157.73Q212.27 156.22 217.57 156.22Q222.72 156.22 224.93 157.8Q227.15 159.37 227.65 161.8Q228.15 164.23 228.15 167.24L228.15 217.02Q228.15 219.74 227.65 222.25Q227.15 224.75 224.93 226.18Q222.72 227.61 217.42 227.61M237.02 143.2L211.99 150.93Q209.41 151.07 207.77 149.36Q206.12 147.64 204.83 143.78Q203.26 138.77 204.26 136.34Q205.26 133.91 209.56 132.47L234.73 124.75Q237.17 124.61 238.88 126.39Q240.6 128.18 241.74 132.05Q243.32 136.77 242.24 139.27Q241.17 141.77 237.02 143.2"/>
    <path id="letra-9-a" class="pap-9" fill="#7DC5C3" d="M298.22 227.47Q292.93 227.47 290.43 225.61Q287.92 223.75 287.92 221.03L289.35 218.6Q288.49 220.03 286.06 222.1Q283.63 224.18 279.77 225.82Q275.9 227.47 270.18 227.47Q263.6 227.47 257.66 224.61Q251.73 221.75 247.15 216.67Q242.57 211.59 239.92 205.15Q237.28 198.71 237.28 191.56Q237.28 184.55 239.92 178.18Q242.57 171.82 247.22 166.88Q251.87 161.95 257.74 159.08Q263.6 156.22 270.18 156.22Q275.48 156.22 279.2 157.73Q282.91 159.23 285.42 161.23Q287.92 163.23 289.21 165.09L288.06 163.09Q287.92 159.66 290.43 157.87Q292.93 156.08 298.37 156.08Q303.52 156.08 305.73 157.65Q307.95 159.23 308.45 161.8Q308.95 164.38 308.95 167.24L308.95 216.6Q308.95 219.31 308.45 221.89Q307.95 224.46 305.73 225.97Q303.52 227.47 298.22 227.47M273.33 206.15Q277.05 206.15 280.13 204.22Q283.2 202.29 284.99 199Q286.78 195.71 286.78 191.7Q286.78 187.55 284.92 184.33Q283.06 181.12 279.91 179.18Q276.76 177.25 273.04 177.25Q268.89 177.25 265.68 179.26Q262.46 181.26 260.53 184.55Q258.59 187.84 258.59 191.99Q258.59 195.85 260.53 199.07Q262.46 202.29 265.82 204.22Q269.18 206.15 273.33 206.15"/>
  </g>
</svg>
