<?xml version="1.0" encoding="UTF-8" standalone="no"?>
<!-- Created with Inkscape (http://www.inkscape.org/) -->

<svg
   xmlns:dc="http://purl.org/dc/elements/1.1/"
   xmlns:cc="http://creativecommons.org/ns#"
   xmlns:rdf="http://www.w3.org/1999/02/22-rdf-syntax-ns#"
   xmlns:svg="http://www.w3.org/2000/svg"
   xmlns="http://www.w3.org/2000/svg"
   xmlns:sodipodi="http://sodipodi.sourceforge.net/DTD/sodipodi-0.dtd"
   xmlns:inkscape="http://www.inkscape.org/namespaces/inkscape"
   width="128.74907mm"
   height="52.332466mm"
   viewBox="0 0 128.74907 52.332466"
   version="1.1"
   id="svg3787"
   inkscape:version="0.92.4 (5da689c313, 2019-01-14)"
   sodipodi:docname="icon.svg">
  <defs
     id="defs3781">
    <clipPath
       clipPathUnits="userSpaceOnUse"
       id="clipPath24">
      <path
         d="M 0,566.929 H 841.89 V 0 H 0 Z"
         id="path22"
         inkscape:connector-curvature="0" />
    </clipPath>
    <clipPath
       clipPathUnits="userSpaceOnUse"
       id="clipPath24-3">
      <path
         d="M 0,566.929 H 841.89 V 0 H 0 Z"
         id="path22-6"
         inkscape:connector-curvature="0" />
    </clipPath>
  </defs>
  <sodipodi:namedview
     id="base"
     pagecolor="#ffffff"
     bordercolor="#666666"
     borderopacity="1.0"
     inkscape:pageopacity="0.0"
     inkscape:pageshadow="2"
     inkscape:zoom="0.35"
     inkscape:cx="-639.55181"
     inkscape:cy="-306.81829"
     inkscape:document-units="mm"
     inkscape:current-layer="layer1"
     showgrid="false"
     inkscape:window-width="1920"
     inkscape:window-height="1016"
     inkscape:window-x="0"
     inkscape:window-y="27"
     inkscape:window-maximized="1" />
  <metadata
     id="metadata3784">
    <rdf:RDF>
      <cc:Work
         rdf:about="">
        <dc:format>image/svg+xml</dc:format>
        <dc:type
           rdf:resource="http://purl.org/dc/dcmitype/StillImage" />
        <dc:title></dc:title>
      </cc:Work>
    </rdf:RDF>
  </metadata>
  <g
     inkscape:label="Layer 1"
     inkscape:groupmode="layer"
     id="layer1"
     transform="translate(-39.190942,-15.321863)">
    <g
       id="g21">
      <path
         inkscape:connector-curvature="0"
         id="path16"
         style="fill:#466005;fill-opacity:1;fill-rule:nonzero;stroke:none;stroke-width:0.35277775"
         d="m 83.383518,48.005099 h 7.20796 v -6.78674 h -7.20796 z" />
      <g
         id="g18"
         transform="matrix(0.35277777,0,0,-0.35277777,-44.934456,157.55424)">
        <g
           clip-path="url(#clipPath24-3)"
           id="g20">
          <g
             transform="translate(345.5737,329.2304)"
             id="g26">
            <path
               inkscape:connector-curvature="0"
               id="path28"
               style="fill:#466005;fill-opacity:1;fill-rule:nonzero;stroke:none"
               d="M 0,0 29.146,43.217 58.291,0 V -26.724 C 36.758,-27.492 17.485,-29.708 0,-33.018 Z m 120.115,26.309 h 19.489 L 119.498,0.41 v -28.918 c -6.561,0.64 -13.323,1.154 -20.316,1.505 V 0.423 Z m 29.213,-43.549 h -15.039 v 16.323 h 15.039 z m 52.757,-29.469 v 22.261 c 1.534,-0.423 3.144,-0.669 4.813,-0.669 9.931,0 17.982,8.051 17.982,17.982 0,6.503 -3.465,12.183 -8.639,15.34 0.338,1.248 0.533,2.552 0.533,3.906 0,8.253 -6.689,14.943 -14.941,14.943 -4.46,0 -8.454,-1.965 -11.191,-5.065 -1.543,0.651 -3.239,1.012 -5.017,1.012 -3.46,0 -6.593,-1.368 -8.912,-3.582 l 23.278,-34.23 h -20.468 v -8.618 c 2.317,-2.882 5.865,-4.729 9.851,-4.729 1.627,0 3.178,0.319 4.609,0.879 V -43.88 c -7.36,2.449 -15.107,4.697 -23.261,6.715 v 30.009 h 13.789 l -0.008,0.021 -39.721,61.908 h -36.641 v 8.391 h 1.357 V 73.948 H 93.592 V 63.246 h 2.772 V 31.999 H 89.097 V 54.773 H 24.467 L -16.788,-7.135 h 7.603 v -27.741 c -5.499,-1.204 -10.803,-2.525 -15.954,-3.938 2.119,3.022 1.635,7.202 -1.249,9.61 -1.267,1.059 -2.793,1.578 -4.326,1.634 -0.448,1.615 -1.37,3.122 -2.755,4.279 -3.623,3.023 -9.01,2.54 -12.035,-1.083 -0.979,-1.171 -1.584,-2.529 -1.839,-3.93 -4.199,1.823 -9.261,0.764 -12.344,-2.927 -1.756,-2.104 -2.546,-4.688 -2.44,-7.227 -1.873,-1.588 -3.065,-3.958 -3.065,-6.608 0,-2.605 1.158,-4.935 2.982,-6.525 -16.438,-6.881 -31.132,-14.692 -44.898,-22.805 44.549,19.609 103.744,29.556 182.479,29.556 78.733,0 146.809,-12.193 182.479,-29.556 -15.721,10.101 -34.005,19.737 -55.765,27.687" />
          </g>
        </g>
      </g>
    </g>
  </g>
</svg>
